<svg width="31" height="16" viewBox="0 0 31 16" fill="none" xmlns="http://www.w3.org/2000/svg">
<path fill-rule="evenodd" clip-rule="evenodd" d="M7.84075 11.6902C8.92177 13.2725 7.77741 15.3704 5.90367 15.3725C5.10456 15.3732 4.35749 14.9674 3.92409 14.296L0.398057 9.01097C0.131244 8.611 0.000389823 8.14851 0.00397817 7.68627C0.000387551 7.22402 0.131244 6.76153 0.398057 6.36156L3.92409 1.07654C4.35749 0.405156 5.10457 -0.000705046 5.90368 9.19474e-07C7.77741 0.00217112 8.92177 2.10003 7.84075 3.68229L6.75962 5.33213L20.0032 5.33213C20.0032 5.33213 20.5682 5.32376 21.1498 5.61477C21.7314 5.90577 22.3573 6.51006 22.3573 7.68627C22.3573 8.86247 21.7314 9.46676 21.1498 9.75777C20.5682 10.0488 20.0032 10.0404 20.0032 10.0404L6.75962 10.0404L7.84075 11.6902ZM30.0038 7.68603C30.0038 9.30348 28.6814 10.6258 27.064 10.6259C25.4465 10.6259 24.1242 9.30348 24.1242 7.68603C24.1242 6.06858 25.4465 4.74621 27.064 4.74621C28.6814 4.74621 30.0038 6.06858 30.0038 7.68603Z" fill="white"/>
</svg>
