<svg width="28" height="28" viewBox="0 0 28 28" fill="none" xmlns="http://www.w3.org/2000/svg">
<circle cx="14" cy="14" r="14" fill="white"/>
<path d="M15.2793 13.3652L17.9844 16.0605C18.0299 16.1061 18.0625 16.1549 18.082 16.207C18.1016 16.2591 18.1113 16.3112 18.1113 16.3633C18.1113 16.4805 18.0658 16.6074 17.9746 16.7441C17.89 16.8809 17.7858 17.0078 17.6621 17.125C17.5449 17.2357 17.4212 17.3301 17.291 17.4082C17.1608 17.4863 17.0534 17.5254 16.9688 17.5254C16.9167 17.5254 16.8678 17.5156 16.8223 17.4961C16.7832 17.4701 16.7441 17.4408 16.7051 17.4082L13.9805 14.6738L11.2656 17.3691C11.2266 17.4082 11.181 17.4408 11.1289 17.4668C11.0768 17.4863 11.0215 17.4961 10.9629 17.4961C10.8457 17.4961 10.7188 17.4538 10.582 17.3691C10.4518 17.278 10.3281 17.1738 10.2109 17.0566C10.1003 16.9329 10.0059 16.806 9.92773 16.6758C9.85612 16.5456 9.82031 16.4382 9.82031 16.3535C9.82031 16.2559 9.85938 16.168 9.9375 16.0898L12.6719 13.3652L9.9668 10.6504C9.93424 10.6113 9.90495 10.5658 9.87891 10.5137C9.85286 10.4616 9.83984 10.4095 9.83984 10.3574C9.83984 10.2337 9.88216 10.1068 9.9668 9.97656C10.0579 9.83984 10.1621 9.71615 10.2793 9.60547C10.403 9.48828 10.5299 9.39062 10.6602 9.3125C10.7904 9.23438 10.901 9.19531 10.9922 9.19531C11.0898 9.19531 11.1777 9.23763 11.2559 9.32227L13.9805 12.0566L16.6855 9.35156C16.7246 9.3125 16.7669 9.2832 16.8125 9.26367C16.8646 9.23763 16.9232 9.22461 16.9883 9.22461C17.1055 9.22461 17.2324 9.27018 17.3691 9.36133C17.5059 9.45247 17.6296 9.5599 17.7402 9.68359C17.8574 9.80078 17.9518 9.92448 18.0234 10.0547C18.1016 10.1784 18.1406 10.2826 18.1406 10.3672C18.1406 10.4062 18.1309 10.4518 18.1113 10.5039C18.0983 10.5495 18.069 10.5918 18.0234 10.6309L15.2793 13.3652Z" fill="#AE8200"/>
</svg>
