<svg width="18" height="14" viewBox="0 0 18 14" fill="none" xmlns="http://www.w3.org/2000/svg">
<path fill-rule="evenodd" clip-rule="evenodd" d="M2 0C0.895431 0 0 0.89543 0 2V12C0 13.1046 0.89543 14 2 14H16C17.1046 14 18 13.1046 18 12V2C18 0.895431 17.1046 0 16 0H2ZM2.55043 3.72727V11H7.62145V9.57244H4.30824V8.07741H7.36222V6.64631H4.30824V5.15483H7.62145V3.72727H2.55043ZM14.9119 11V3.72727H13.1577V7.91761H13.0973L10.2351 3.72727H8.7223V11H10.4801V6.80256H10.5263L13.4205 11H14.9119Z" fill="white"/>
</svg>
