<svg width="25" height="24" viewBox="0 0 25 24" fill="none" xmlns="http://www.w3.org/2000/svg">
<path d="M12.5 0C12.3867 0 12.2739 0.0359287 12.1775 0.108844L0.198577 9.45825C-0.0253776 9.63533 -0.0670029 9.96251 0.110077 10.1917C0.287158 10.4156 0.614341 10.4573 0.843504 10.2802L1.56269 9.71866V23.4106C1.56269 23.6971 1.79706 23.9315 2.08351 23.9315H9.37505V14.5566H15.6249V23.9315H22.9165C23.2029 23.9315 23.4373 23.6971 23.4373 23.4106V9.71866L24.1565 10.2802C24.2555 10.3531 24.3644 10.39 24.479 10.39C24.6352 10.39 24.7858 10.3219 24.8899 10.1917C25.067 9.96251 25.0254 9.63533 24.8014 9.45825L12.8225 0.108844C12.7261 0.0359287 12.6133 0 12.5 0ZM17.7082 2.05685V2.60412L20.8332 5.04142V2.05685H17.7082Z" fill="white"/>
</svg>
