<svg width="21" height="20" viewBox="0 0 21 20" fill="none" xmlns="http://www.w3.org/2000/svg">
<path d="M15.9106 0.904785C15.4833 0.904785 15.1348 1.25329 15.1348 1.6806V5.38995L11.0376 1.29269C10.7345 0.98964 10.2254 0.98964 9.92235 1.29269L0.830804 10.4085C0.527753 10.7115 0.527753 11.1964 0.830804 11.4995C1.13386 11.8025 1.61874 11.8025 1.92179 11.4995L10.48 2.94129L19.0624 11.5237C19.2139 11.6752 19.42 11.7662 19.62 11.7662C19.82 11.7662 20.0018 11.6752 20.1534 11.5237C20.4564 11.2207 20.4564 10.7358 20.1534 10.4327L17.4623 7.74163V1.6806C17.4623 1.25329 17.1138 0.904785 16.6865 0.904785H15.9106ZM10.48 4.37169L1.94603 12.9056V17.1726C1.94603 18.4575 2.98853 19.5 4.27347 19.5H16.6865C17.9714 19.5 19.0139 18.4575 19.0139 17.1726V12.9056L10.48 4.37169ZM8.92834 11.7419H12.0316C12.4589 11.7419 12.8074 12.0904 12.8074 12.5177V17.1726C12.8074 17.5999 12.4589 17.9484 12.0316 17.9484H8.92834C8.50104 17.9484 8.15253 17.5999 8.15253 17.1726V12.5177C8.15253 12.0904 8.50104 11.7419 8.92834 11.7419Z" fill="#1269B3"/>
</svg>
