<svg width="8" height="9" viewBox="0 0 8 9" fill="none" xmlns="http://www.w3.org/2000/svg">
<path d="M6.41544 3C5.9125 3.00057 5.60533 3.54644 5.8955 3.95815L6.18569 4.38744H2.63091C2.63091 4.38744 2.47925 4.38527 2.32314 4.46099C2.16702 4.53671 1.99902 4.69395 1.99902 5C1.99902 5.30605 2.16702 5.46329 2.32314 5.53901C2.47925 5.61473 2.63091 5.61256 2.63091 5.61256H6.18569L5.8955 6.04185C5.60533 6.45356 5.9125 6.99943 6.41544 7C6.62993 7.00018 6.83046 6.89458 6.94679 6.71988L7.89323 5.34469C7.96484 5.24062 7.99997 5.12028 7.999 5C7.99997 4.87972 7.96484 4.75938 7.89323 4.65531L6.94679 3.28012C6.83046 3.10542 6.62993 2.99982 6.41544 3Z" fill="#004AAD"/>
<path d="M0.591776 0C0.266708 0.000368704 -0.000624576 0.280337 -0.000976563 0.620769L-0.000976563 8.37923C-0.000624576 8.71966 0.266708 8.99963 0.591776 9L7.40734 9C7.73241 8.99963 7.99864 8.71966 7.999 8.37923V7.6027C7.99907 7.40873 7.92474 7.24375 7.81089 7.13769C7.69704 7.03164 7.55139 6.98193 7.40734 6.98193C7.26329 6.98193 7.11662 7.0317 7.00269 7.13769C6.88876 7.24369 6.81476 7.40873 6.81459 7.6027L6.81347 7.75846L1.18453 7.75846L1.18453 1.24154L6.81349 1.24154L6.81461 1.3973C6.81479 1.59127 6.88879 1.75631 7.00272 1.86231C7.11665 1.9683 7.26332 2.01807 7.40736 2.01807C7.55141 2.01807 7.69707 1.96836 7.81092 1.86231C7.92477 1.75625 7.9991 1.59127 7.99902 1.3973V0.620769C7.99867 0.280337 7.73243 0.000368781 7.40736 0L0.591776 0Z" fill="#004AAD"/>
</svg>
