<svg width="21" height="18" viewBox="0 0 21 18" fill="none" xmlns="http://www.w3.org/2000/svg">
<path d="M19.1922 3.13882H11.0822C10.9578 3.13882 10.8351 3.10907 10.7235 3.05187C10.6119 2.99467 10.5144 2.91154 10.4385 2.80888L8.79547 0.583252C8.66161 0.401777 8.48952 0.254799 8.29249 0.153668C8.09547 0.0525381 7.87878 -3.8019e-05 7.65916 2.06269e-08H1.43392C1.0537 1.94695e-09 0.68904 0.157405 0.420141 0.4376C0.151241 0.717795 0.00011674 1.09784 0 1.49415V16.2191C0.00011674 16.6154 0.151241 16.9955 0.420141 17.2757C0.68904 17.5558 1.0537 17.7133 1.43392 17.7133H19.1922C19.5724 17.7133 19.937 17.5558 20.2059 17.2757C20.4748 16.9955 20.626 16.6154 20.6261 16.2191V4.63482C20.6262 4.43842 20.5893 4.24392 20.5173 4.06243C20.4453 3.88094 20.3397 3.71601 20.2066 3.57707C20.0734 3.43814 19.9153 3.32792 19.7412 3.25273C19.5671 3.17753 19.3806 3.13882 19.1922 3.13882ZM12.712 11.4186L9.01384 13.6443C8.8466 13.7448 8.65693 13.7977 8.46386 13.7977C8.2708 13.7977 8.08114 13.7447 7.91392 13.6442C7.74669 13.5436 7.60778 13.399 7.51114 13.2247C7.4145 13.0505 7.36351 12.8529 7.36331 12.6517V8.20041C7.3636 7.99931 7.4146 7.80183 7.5112 7.62775C7.6078 7.45367 7.7466 7.30912 7.91369 7.20858C8.08079 7.10804 8.2703 7.05505 8.46323 7.05492C8.65616 7.05479 8.84574 7.10752 9.01296 7.20783L12.7111 9.43346C12.8781 9.53419 13.0167 9.67889 13.1131 9.85305C13.2094 10.0272 13.2602 10.2247 13.2603 10.4258C13.2604 10.6268 13.2098 10.8244 13.1136 10.9986C13.0173 11.1729 12.8788 11.3177 12.712 11.4186Z" fill="white"/>
</svg>
