<svg width="84" height="69" viewBox="0 0 84 69" fill="none" xmlns="http://www.w3.org/2000/svg">
<path fill-rule="evenodd" clip-rule="evenodd" d="M60.055 12.9577C58.923 11.3667 57.064 10.3297 54.963 10.3297H6.302C2.821 10.3297 0 13.1507 0 16.6317C0 25.0527 0 43.8577 0 52.2787C0 55.7587 2.821 58.5807 6.302 58.5807H14.431L7.659 65.3538C6.846 66.1668 6.846 67.4867 7.659 68.2998C8.472 69.1128 9.792 69.1128 10.605 68.2998L75.349 3.55575C76.162 2.74275 76.162 1.42275 75.349 0.60975C74.536 -0.20325 73.216 -0.20325 72.403 0.60975L60.055 12.9577ZM61.208 30.0708V26.8088C61.208 25.6588 60.274 24.7248 59.124 24.7248C57.974 24.7248 57.041 25.6588 57.041 26.8088V52.2787C57.041 52.8447 56.816 53.3877 56.415 53.7887C56.015 54.1888 55.472 54.4137 54.905 54.4137H29.499C28.349 54.4137 27.415 55.3477 27.415 56.4977C27.415 57.6478 28.349 58.5807 29.499 58.5807H54.905C56.577 58.5807 58.18 57.9167 59.362 56.7347C60.544 55.5527 61.208 53.9497 61.208 52.2787V38.7257L80.088 53.4717C80.715 53.9618 81.568 54.0508 82.284 53.7018C82.999 53.3528 83.453 52.6258 83.453 51.8298V16.3337C83.453 15.5297 82.991 14.7967 82.264 14.4517C81.538 14.1067 80.678 14.2107 80.054 14.7177L61.208 30.0708ZM56.972 16.0408C56.737 15.1518 55.926 14.4957 54.963 14.4957H6.302C5.122 14.4957 4.166 15.4517 4.166 16.6317V52.2787C4.166 53.4577 5.122 54.4137 6.302 54.4137H18.598L56.972 16.0408ZM62.465 34.4207L79.287 20.7178V47.5588L62.465 34.4207Z" fill="#1269B3"/>
</svg>
