<svg width="23" height="24" viewBox="0 0 23 24" fill="none" xmlns="http://www.w3.org/2000/svg">
<path fill-rule="evenodd" clip-rule="evenodd" d="M11.5 1.5C5.70101 1.5 1 6.20101 1 12C1 17.799 5.70101 22.5 11.5 22.5C17.299 22.5 22 17.799 22 12C22 6.20101 17.299 1.5 11.5 1.5ZM0 12C0 5.64873 5.14873 0.5 11.5 0.5C17.8513 0.5 23 5.64873 23 12C23 18.3513 17.8513 23.5 11.5 23.5C5.14873 23.5 0 18.3513 0 12Z" fill="white"/>
<path d="M11.4386 6.14209C12.8943 6.14209 14.0552 7.22461 14.0552 8.56015C14.0552 9.89567 12.8943 10.9836 11.4386 10.9836C9.9828 10.9836 8.82195 9.89567 8.82195 8.56015C8.82195 7.22461 9.9828 6.14209 11.4386 6.14209ZM11.4386 12.3414C14.6844 12.3414 17.3061 14.8161 17.3771 17.9002H5.5C5.57101 14.8161 8.19268 12.3414 11.4386 12.3414Z" fill="white"/>
</svg>
