<svg width="35" height="35" viewBox="0 0 35 35" fill="none" xmlns="http://www.w3.org/2000/svg">
<path d="M13.4753 33.3266C13.0504 33.3288 12.6296 33.2431 12.2393 33.075L10.205 32.2328C9.40429 31.899 8.7684 31.2617 8.43636 30.4603C8.10432 29.6588 8.10314 28.7586 8.43308 27.9563L9.0784 26.3922C9.10368 26.3278 9.10991 26.2574 9.09634 26.1896C9.08276 26.1217 9.04996 26.0592 9.00183 26.0094C8.95237 25.9573 8.88847 25.9211 8.81832 25.9055C8.74817 25.8899 8.67497 25.8956 8.60808 25.9219L7.04402 26.5672C6.64547 26.732 6.21836 26.8165 5.7871 26.8161C5.35584 26.8156 4.9289 26.7302 4.5307 26.5646C4.1325 26.399 3.77084 26.1566 3.46641 25.8511C3.16198 25.5456 2.92075 25.1832 2.75652 24.7844L1.92527 22.7719C1.59191 21.9684 1.59129 21.0653 1.92356 20.2613C2.25582 19.4573 2.89377 18.8182 3.69715 18.4844L5.26121 17.8391C5.32439 17.808 5.37746 17.7597 5.41425 17.6997C5.45103 17.6396 5.47003 17.5704 5.46902 17.5C5.47215 17.4278 5.45416 17.3562 5.41725 17.2941C5.38035 17.2319 5.32612 17.1819 5.26121 17.15L3.69715 16.5157C2.89377 16.1819 2.25582 15.5427 1.92356 14.7387C1.59129 13.9347 1.59191 13.0317 1.92527 12.2282L2.76746 10.1938C3.10337 9.39508 3.74156 8.76167 4.54275 8.43177C5.34395 8.10186 6.24311 8.10225 7.04402 8.43284L8.60808 9.07815C8.67252 9.10344 8.74286 9.10967 8.81073 9.09609C8.87861 9.08252 8.94115 9.04971 8.9909 9.00159C9.04302 8.95212 9.07919 8.88823 9.09478 8.81808C9.11037 8.74793 9.10466 8.67473 9.0784 8.60784L8.43308 7.04378C8.26834 6.64523 8.18377 6.21811 8.18422 5.78686C8.18467 5.3556 8.27013 4.92866 8.43571 4.53046C8.60129 4.13225 8.84374 3.7706 9.1492 3.46617C9.45466 3.16174 9.81713 2.92051 10.2159 2.75628L12.2284 1.92503C13.0319 1.59167 13.935 1.59105 14.739 1.92332C15.543 2.25558 16.1821 2.89353 16.5159 3.6969L17.1612 5.26096C17.1923 5.32414 17.2406 5.37721 17.3006 5.414C17.3606 5.45079 17.4299 5.46978 17.5003 5.46878C17.5725 5.47191 17.6441 5.45392 17.7062 5.41701C17.7684 5.3801 17.8184 5.32587 17.8503 5.26096L18.4846 3.6969C18.8184 2.89353 19.4576 2.25558 20.2616 1.92332C21.0656 1.59105 21.9686 1.59167 22.7721 1.92503L24.8065 2.76721C25.6072 3.10106 26.2431 3.73837 26.5751 4.53979C26.9072 5.3412 26.9083 6.2415 26.5784 7.04378L25.9221 8.60784C25.8969 8.67227 25.8906 8.74262 25.9042 8.81049C25.9178 8.87836 25.9506 8.9409 25.9987 8.99065C26.0482 9.04278 26.1121 9.07895 26.1822 9.09454C26.2524 9.11013 26.3256 9.10442 26.3925 9.07815L27.9565 8.43284C28.3551 8.26809 28.7822 8.18352 29.2134 8.18397C29.6447 8.18442 30.0716 8.26988 30.4698 8.43546C30.868 8.60104 31.2297 8.84349 31.5341 9.14895C31.8386 9.45441 32.0798 9.81689 32.244 10.2157L33.0753 12.2282C33.4086 13.0317 33.4092 13.9347 33.077 14.7387C32.7447 15.5427 32.1068 16.1819 31.3034 16.5157L29.7393 17.161C29.6762 17.192 29.6231 17.2404 29.5863 17.3004C29.5495 17.3604 29.5305 17.4296 29.5315 17.5C29.5284 17.5723 29.5464 17.6438 29.5833 17.706C29.6202 17.7681 29.6744 17.8182 29.7393 17.85L31.3034 18.4844C32.1068 18.8182 32.7447 19.4573 33.077 20.2613C33.4092 21.0653 33.4086 21.9684 33.0753 22.7719L32.2331 24.8063C31.8992 25.6069 31.2619 26.2428 30.4605 26.5749C29.6591 26.9069 28.7588 26.9081 27.9565 26.5782L26.3925 25.9328C26.328 25.9076 26.2577 25.9013 26.1898 25.9149C26.1219 25.9285 26.0594 25.9613 26.0096 26.0094C25.9575 26.0589 25.9214 26.1228 25.9058 26.1929C25.8902 26.2631 25.8959 26.3363 25.9221 26.4032L26.5675 27.9672C26.7322 28.3658 26.8168 28.7929 26.8163 29.2241C26.8159 29.6554 26.7304 30.0823 26.5648 30.4805C26.3993 30.8787 26.1568 31.2404 25.8513 31.5448C25.5459 31.8493 25.1834 32.0905 24.7846 32.2547L22.7721 33.086C21.9686 33.4193 21.0656 33.4199 20.2616 33.0877C19.4576 32.7554 18.8184 32.1175 18.4846 31.3141L17.8393 29.75C17.8099 29.6848 17.7622 29.6295 17.7021 29.5907C17.6419 29.5519 17.5718 29.5312 17.5003 29.5313C17.428 29.5281 17.3565 29.5461 17.2943 29.583C17.2322 29.62 17.1821 29.6742 17.1503 29.7391L16.5159 31.3032C16.2666 31.9038 15.8445 32.4168 15.3031 32.777C14.7618 33.1373 14.1256 33.3286 13.4753 33.3266ZM8.75027 23.7016C9.16927 23.705 9.58109 23.8107 9.94986 24.0097C10.3186 24.2086 10.6332 24.4947 10.8661 24.843C11.099 25.1913 11.2433 25.5913 11.2863 26.0081C11.3292 26.4249 11.2697 26.8459 11.1128 27.2344L10.4565 28.7875C10.4012 28.921 10.373 29.0642 10.3733 29.2086C10.3737 29.3531 10.4027 29.4961 10.4586 29.6293C10.5145 29.7626 10.5963 29.8834 10.6992 29.9848C10.8021 30.0863 10.9241 30.1663 11.0581 30.2203L13.1253 31.0625C13.2588 31.1178 13.4019 31.1461 13.5464 31.1457C13.6909 31.1454 13.8339 31.1164 13.9671 31.0604C14.1003 31.0045 14.2211 30.9227 14.3226 30.8198C14.424 30.7169 14.5041 30.595 14.5581 30.461L15.1925 28.9188C15.3796 28.4584 15.6983 28.0634 16.1088 27.7832C16.5193 27.5031 17.0033 27.3502 17.5003 27.3438C18.0034 27.3407 18.496 27.4879 18.915 27.7666C19.334 28.0452 19.6602 28.4426 19.8518 28.9078L20.4971 30.461C20.5522 30.594 20.633 30.7149 20.7349 30.8166C20.8368 30.9183 20.9578 30.999 21.0909 31.0538C21.224 31.1087 21.3667 31.1368 21.5107 31.1364C21.6546 31.136 21.7971 31.1072 21.93 31.0516L23.9534 30.2203C24.2174 30.1046 24.4283 29.8937 24.544 29.6297C24.5997 29.4963 24.6283 29.3532 24.6283 29.2086C24.6283 29.0641 24.5997 28.9209 24.544 28.7875L23.8987 27.2344C23.7317 26.7765 23.699 26.2804 23.8044 25.8044C23.9097 25.3285 24.1488 24.8926 24.4935 24.5479C24.8382 24.2033 25.2741 23.9642 25.75 23.8588C26.2259 23.7535 26.722 23.7862 27.18 23.9532L28.7331 24.6094C28.8666 24.6647 29.0097 24.693 29.1542 24.6926C29.2987 24.6922 29.4417 24.6633 29.5749 24.6073C29.7081 24.5514 29.8289 24.4696 29.9304 24.3667C30.0318 24.2638 30.1119 24.1418 30.1659 24.0078L31.0081 21.9844C31.0634 21.8509 31.0916 21.7078 31.0913 21.5633C31.0909 21.4188 31.0619 21.2758 31.006 21.1426C30.9501 21.0094 30.8683 20.8885 30.7654 20.7871C30.6625 20.6857 30.5405 20.6056 30.4065 20.5516L28.8643 19.9172C28.4012 19.7212 28.0061 19.3932 27.7283 18.974C27.4505 18.5548 27.3024 18.0631 27.3024 17.5602C27.3024 17.0573 27.4505 16.5656 27.7283 16.1464C28.0061 15.7272 28.4012 15.3991 28.8643 15.2032L30.4175 14.5578C30.5544 14.507 30.6797 14.4293 30.7861 14.3292C30.8925 14.2292 30.9778 14.1088 31.0369 13.9753C31.096 13.8417 31.1278 13.6977 31.1304 13.5517C31.1329 13.4056 31.1062 13.2606 31.0518 13.125L30.2206 11.1016C30.1048 10.8376 29.894 10.6267 29.63 10.511C29.4965 10.4553 29.3534 10.4267 29.2089 10.4267C29.0643 10.4267 28.9212 10.4553 28.7878 10.511L27.2346 11.1563C26.7709 11.3307 26.2666 11.3667 25.7828 11.2601C25.299 11.1534 24.8565 10.9086 24.5091 10.5554C24.1617 10.2022 23.9243 9.7558 23.8256 9.2703C23.727 8.7848 23.7714 8.28111 23.9534 7.82034L24.6096 6.26721C24.6649 6.13372 24.6932 5.99059 24.6928 5.8461C24.6925 5.70161 24.6635 5.55862 24.6076 5.4254C24.5516 5.29218 24.4699 5.17136 24.367 5.06992C24.2641 4.96848 24.1421 4.88843 24.0081 4.8344L21.93 3.93753C21.7965 3.88225 21.6533 3.85398 21.5088 3.85434C21.3644 3.85469 21.2214 3.88368 21.0881 3.93961C20.9549 3.99554 20.8341 4.07732 20.7327 4.18021C20.6312 4.28311 20.5512 4.40508 20.4971 4.53909L19.8628 6.08128C19.6721 6.55029 19.3449 6.9512 18.9237 7.23204C18.5024 7.51287 18.0065 7.66067 17.5003 7.65628C16.9971 7.65936 16.5045 7.51215 16.0855 7.23349C15.6666 6.95484 15.3404 6.55744 15.1487 6.09221L14.5034 4.53909C14.3921 4.28362 14.1876 4.08024 13.9315 3.97048C13.6753 3.86072 13.387 3.85284 13.1253 3.94846L11.1018 4.77971C10.8378 4.89548 10.627 5.10631 10.5112 5.37034C10.4556 5.50375 10.4269 5.64688 10.4269 5.79143C10.4269 5.93599 10.4556 6.07911 10.5112 6.21253L11.1565 7.76565C11.3555 8.23785 11.4082 8.75891 11.3077 9.26137C11.2072 9.76384 10.9583 10.2246 10.593 10.584C10.2277 10.9433 9.763 11.1848 9.25896 11.2771C8.75493 11.3694 8.2348 11.3082 7.7659 11.1016L6.21277 10.4453C6.07927 10.3901 5.93614 10.3618 5.79166 10.3621C5.64717 10.3625 5.50418 10.3915 5.37096 10.4474C5.23773 10.5034 5.11691 10.5851 5.01547 10.688C4.91403 10.7909 4.83399 10.9129 4.77996 11.0469L3.93777 13.125C3.8825 13.2585 3.85422 13.4017 3.85458 13.5461C3.85494 13.6906 3.88392 13.8336 3.93985 13.9668C3.99579 14.1001 4.07756 14.2209 4.18046 14.3223C4.28335 14.4238 4.40533 14.5038 4.53933 14.5578L6.08152 15.1922C6.54464 15.3882 6.93977 15.7163 7.21756 16.1354C7.49535 16.5546 7.6435 17.0464 7.6435 17.5492C7.6435 18.0521 7.49535 18.5439 7.21756 18.9631C6.93977 19.3822 6.54464 19.7103 6.08152 19.9063L4.5284 20.5516C4.39536 20.6067 4.2745 20.6875 4.17276 20.7894C4.07102 20.8912 3.9904 21.0122 3.93553 21.1453C3.88066 21.2785 3.85261 21.4211 3.85299 21.5651C3.85338 21.7091 3.88219 21.8516 3.93777 21.9844L4.76902 24.0078C4.88479 24.2719 5.09562 24.4827 5.35965 24.5985C5.49306 24.6541 5.63618 24.6828 5.78074 24.6828C5.9253 24.6828 6.06842 24.6541 6.20183 24.5985L7.75496 23.9532C8.06612 23.8024 8.40483 23.7168 8.75027 23.7016ZM17.5003 22.9688C16.6004 22.9704 15.7141 22.75 14.9198 22.3271C14.1255 21.9041 13.4479 21.2917 12.947 20.5442C12.4461 19.7966 12.1375 18.937 12.0483 18.0416C11.9592 17.1462 12.0925 16.2426 12.4362 15.411C12.8144 14.496 13.4339 13.7008 14.2286 13.1103C15.0234 12.5199 15.9635 12.1562 16.9487 12.0582C17.9339 11.9601 18.9272 12.1314 19.8227 12.5537C20.7182 12.9759 21.4823 13.6334 22.0334 14.4559C22.5845 15.2784 22.902 16.2351 22.952 17.2239C23.002 18.2127 22.7826 19.1966 22.3172 20.0704C21.8519 20.9443 21.158 21.6755 20.3097 22.186C19.4613 22.6964 18.4903 22.967 17.5003 22.9688ZM17.5003 14.2188C17.0687 14.2208 16.6416 14.3062 16.2425 14.4703C15.4391 14.8041 14.8011 15.4433 14.4689 16.2473C14.1366 17.0513 14.1372 17.9543 14.4706 18.7578C14.8044 19.5612 15.4435 20.1992 16.2475 20.5314C17.0515 20.8637 17.9545 20.8631 18.7581 20.5297C19.3566 20.2808 19.8679 19.8602 20.2276 19.321C20.5874 18.7819 20.7793 18.1482 20.7793 17.5C20.7793 16.8519 20.5874 16.2182 20.2276 15.679C19.8679 15.1398 19.3566 14.7192 18.7581 14.4703C18.3605 14.3011 17.9324 14.2155 17.5003 14.2188Z" fill="black"/>
</svg>
