<svg width="216" height="216" viewBox="0 0 216 216" fill="none" xmlns="http://www.w3.org/2000/svg">
<g style="mix-blend-mode:multiply" opacity="0.5">
<path fill-rule="evenodd" clip-rule="evenodd" d="M103.968 215.018C44.8772 212.792 -1.2202 163.084 1.00652 103.993C3.23325 44.9026 52.9409 -1.19484 112.032 1.03188C171.122 3.2586 217.22 52.9662 214.993 112.057C212.766 171.148 163.059 217.245 103.968 215.018ZM40.9421 156.941C30.3161 142.394 24.3285 124.299 25.0595 104.9C26.7856 59.0931 65.3187 23.3587 111.125 25.0848C128.659 25.7455 144.717 31.799 157.763 41.5889L40.9421 156.941ZM61.6604 176.898L177.554 62.7228C186.612 76.6042 191.612 93.3268 190.941 111.151C189.214 156.958 150.681 192.692 104.875 190.966C88.8452 190.362 74.0493 185.251 61.6604 176.898Z" fill="#DADADA"/>
</g>
</svg>
