<svg width="36" height="36" viewBox="0 0 36 36" fill="none" xmlns="http://www.w3.org/2000/svg">
<path d="M30.0289 0.671875H5.29922C2.37254 0.671875 0 3.04442 0 5.97109V30.7008C0 33.6275 2.37254 36 5.29922 36H30.0289C32.9556 36 35.3281 33.6275 35.3281 30.7008V5.97109C35.3281 3.04442 32.9556 0.671875 30.0289 0.671875Z" fill="#25D366"/>
<path d="M8.48676 27.7893L9.45277 23.3043C8.21117 21.3459 7.72682 19.0018 8.09059 16.7118C8.45436 14.4218 9.64125 12.3431 11.4286 10.8659C13.2159 9.38874 15.4808 8.61449 17.7984 8.68844C20.116 8.76239 22.3269 9.67947 24.0165 11.2676C25.706 12.8558 26.7579 15.0058 26.9749 17.3144C27.192 19.623 26.5592 21.9314 25.1952 23.8066C23.8313 25.6818 21.83 26.9949 19.5668 27.4995C17.3036 28.0041 14.9341 27.6655 12.9028 26.5473L8.48676 27.7893Z" fill="#25D366" stroke="white" stroke-width="2"/>
<path d="M21.2539 19.5096C21.0469 19.3716 20.8399 19.3026 20.6329 19.5786L19.8049 20.6826C19.5979 20.8206 19.4599 20.8896 19.1839 20.7516C18.1489 20.1996 16.6999 19.5786 15.4579 17.5086C15.3889 17.2326 15.5269 17.0946 15.6649 16.9566L16.2859 15.9906C16.4239 15.8526 16.3549 15.7146 16.2859 15.5766L15.4579 13.5756C15.2509 13.0236 15.0439 13.0926 14.8369 13.0926H14.2849C14.1469 13.0926 13.8709 13.1616 13.5949 13.4376C12.0769 14.9556 12.6979 17.0946 13.8019 18.4746C14.0089 18.7506 15.3889 21.2346 18.3559 22.5456C20.5639 23.5116 21.0469 23.3736 21.6679 23.2356C22.4269 23.1666 23.1859 22.5456 23.5309 21.9246C23.5999 21.7176 23.9449 20.8206 23.6689 20.6826" fill="white"/>
</svg>
