<svg width="257" height="274" viewBox="0 0 257 274" fill="none" xmlns="http://www.w3.org/2000/svg">
<path d="M234.5 276L211.55 237H257.45L234.5 276Z" fill="#329ADA"/>
<path d="M143.5 198L120.55 237H166.45L143.5 198Z" fill="#329ADA"/>
<path d="M234.5 41L211.55 80H257.45L234.5 41Z" fill="#2899EB"/>
<path d="M211.5 80L187.684 119.75H235.316L211.5 80Z" fill="#329ADA"/>
<path d="M189 119L165.617 80H212.383L189 119Z" fill="#A4C4D8"/>
<path d="M166 236L189.383 197H142.617L166 236Z" fill="#1E82BF"/>
<path d="M211 81L235.249 41.25H186.751L211 81Z" fill="#0589DA"/>
<path d="M51.5 198L74.4497 158.25H28.5503L51.5 198Z" fill="#1E82BF"/>
<path d="M234.5 198L257.45 158.25H211.55L234.5 198Z" fill="#66A3C8"/>
<path d="M97.5 276L120.45 237H74.5503L97.5 276Z" fill="#286991"/>
<path d="M188.5 276L211.45 237H165.55L188.5 276Z" fill="#2C88C0"/>
<path d="M188.5 276L211.45 237H165.55L188.5 276Z" fill="#2C88C0"/>
<path d="M188.5 276L211.45 237H165.55L188.5 276Z" fill="#2C88C0"/>
<path d="M188.5 276L211.45 237H165.55L188.5 276Z" fill="#2C88C0"/>
<path d="M166 158L189.383 119H142.617L166 158Z" fill="#2C88C0"/>
<path d="M166 158L189.383 119H142.617L166 158Z" fill="#2C88C0"/>
<path d="M166 158L189.383 119H142.617L166 158Z" fill="#2C88C0"/>
<path d="M166 158L189.383 119H142.617L166 158Z" fill="#2C88C0"/>
<path d="M97.5 198L120.45 237H74.5503L97.5 198Z" fill="#BFE7FF"/>
<path d="M212 236L235.383 197H188.617L212 236Z" fill="#C7DAE7"/>
<path d="M234 119L257.383 80H210.617L234 119Z" fill="#C7DAE7"/>
<path d="M97.5 199L120.45 158.5H74.5503L97.5 199Z" fill="#FFE569" fill-opacity="0.59"/>
<path d="M234 119L257.383 159.5H210.617L234 119Z" fill="#3FD2E6"/>
<path d="M74.4003 237.531L51.279 197.131L98.6872 197.795L74.4003 237.531Z" fill="#074871"/>
<path d="M120.5 236L144.316 196.25H96.6843L120.5 236Z" fill="#FFE569" fill-opacity="0.59"/>
<path d="M120.5 158L96.6843 197.75H144.316L120.5 158Z" fill="#60C2FF"/>
<path d="M189 197L212.383 236.75H165.617L189 197Z" fill="#FFE569" fill-opacity="0.59"/>
<path d="M143 119L166.383 158.75H119.617L143 119Z" fill="#FFE569" fill-opacity="0.59"/>
<path d="M189 118L212.383 159.25H165.617L189 118Z" fill="#FFE569" fill-opacity="0.59"/>
<path d="M51 197L74.3827 236.75H27.6173L51 197Z" fill="#FFE569" fill-opacity="0.59"/>
<path d="M165.5 238L189.316 277.75H141.684L165.5 238Z" fill="#FFE569" fill-opacity="0.59"/>
<path d="M74 235L49.7513 276.25H98.2487L74 235Z" fill="#329ADA"/>
<path d="M256 0L231.751 41.25H280.249L256 0Z" fill="#329ADA"/>
<path d="M27.5 235L51.3157 277.75H3.6843L27.5 235Z" fill="#FFE569" fill-opacity="0.59"/>
<path d="M143.5 198L166.45 158.25H120.55L143.5 198Z" fill="#009EFF"/>
<path d="M143.5 198L166.45 158.25H120.55L143.5 198Z" fill="#0069A9"/>
<path d="M27.5 236L50.4497 275H4.55033L27.5 236Z" fill="#C5E2F3"/>
<path d="M50.5 277L73.4497 236.5L27.5503 236.5L50.5 277Z" fill="#009EFF"/>
<path d="M120 77L143.383 119L96.6173 119L120 77Z" fill="#91CBEF"/>
<path d="M120 77L143.383 119L96.6173 119L120 77Z" fill="#91CBEF"/>
<path d="M120 77L143.383 119L96.6173 119L120 77Z" fill="#91CBEF"/>
<path d="M142.5 276L119.55 237H165.45L142.5 276Z" fill="#074871"/>
<path d="M211.101 158.579L188.565 118.188L234.803 118.835L211.101 158.579Z" fill="#A4D2EE"/>
<path d="M166 158L142.617 197H189.383L166 158Z" fill="#BEE6FF"/>
<path d="M166 158L142.617 197H189.383L166 158Z" fill="#BEE6FF"/>
<path d="M188.5 198L165.55 158.25H211.45L188.5 198Z" fill="#60C2FF"/>
<path d="M74 158L50.6173 197.75H97.3827L74 158Z" fill="#BEE6FF"/>
<path d="M143 119L119.617 158.75H166.383L143 119Z" fill="#07629A"/>
<path d="M211.5 236L235.316 276.5H187.684L211.5 236Z" fill="#086BA8"/>
<path d="M120 238L96.6173 277H143.383L120 238Z" fill="#9BC2DA"/>
<path d="M211 158L187.617 197H234.383L211 158Z" fill="#013567"/>
<path d="M209 3L185.617 42H232.383L209 3Z" fill="#013567"/>
<path d="M234.5 198L211.55 237H257.45L234.5 198Z" fill="#9BC2DA"/>
<path d="M256 81L232.617 120H279.383L256 81Z" fill="#BEE6FF"/>
<path d="M258 241L281.383 198.25H234.617L258 241Z" fill="#1E82BF"/>
</svg>
