<svg width="253" height="237" viewBox="0 0 253 237" fill="none" xmlns="http://www.w3.org/2000/svg">
<path d="M13 0L34.6506 37.5H-8.65063L13 0Z" fill="#329ADA"/>
<path d="M98 75L119.651 37.5H76.3494L98 75Z" fill="#329ADA"/>
<path d="M13 225L34.6506 187.5H-8.65063L13 225Z" fill="#FFE569" fill-opacity="0.59"/>
<path d="M34.5 187L56.5836 149.5H12.4164L34.5 187Z" fill="#329ADA"/>
<path d="M55.5 150L77.5836 187.5H33.4164L55.5 150Z" fill="#1D4A66"/>
<path d="M77 38L55.3494 75.5H98.6506L77 38Z" fill="#1E82BF"/>
<path d="M35 187L12.4833 224.5H57.5167L35 187Z" fill="#1E82BF"/>
<path d="M184 75L162.349 112.5H205.651L184 75Z" fill="#1E82BF"/>
<path d="M13 75L-8.65063 112.5H34.6506L13 75Z" fill="#66A3C8"/>
<path d="M141 0L119.349 37.5H162.651L141 0Z" fill="#286991"/>
<path d="M56 0L34.3494 37.5H77.6506L56 0Z" fill="#2C88C0"/>
<path d="M56 0L34.3494 37.5H77.6506L56 0Z" fill="#2C88C0"/>
<path d="M56 0L34.3494 37.5H77.6506L56 0Z" fill="#2C88C0"/>
<path d="M56 0L34.3494 37.5H77.6506L56 0Z" fill="#2C88C0"/>
<path d="M77 113L55.3494 150.5H98.6506L77 113Z" fill="#2C88C0"/>
<path d="M77 113L55.3494 150.5H98.6506L77 113Z" fill="#2C88C0"/>
<path d="M77 113L55.3494 150.5H98.6506L77 113Z" fill="#2C88C0"/>
<path d="M77 113L55.3494 150.5H98.6506L77 113Z" fill="#2C88C0"/>
<path d="M141 75L119.349 37.5H162.651L141 75Z" fill="#BFE7FF"/>
<path d="M34 38L12.3494 75.5H55.6506L34 38Z" fill="#C7DAE7"/>
<path d="M13.5 150L-8.58365 187.5H35.5836L13.5 150Z" fill="#C7DAE7"/>
<path d="M141 74L119.349 112.25H162.651L141 74Z" fill="#FFE569" fill-opacity="0.59"/>
<path d="M13.5 150L-8.58365 111.75H35.5836L13.5 150Z" fill="#FFE569" fill-opacity="0.59"/>
<path d="M162.732 36.9935L184.383 75.5563L139.99 74.9229L162.732 36.9935Z" fill="#074871"/>
<path d="M119.5 38L97.4164 76.25H141.584L119.5 38Z" fill="#FFE569" fill-opacity="0.59"/>
<path d="M119.5 113L141.584 74.75H97.4164L119.5 113Z" fill="#60C2FF"/>
<path d="M55.5 76L33.4164 37.75H77.5836L55.5 76Z" fill="#FFE569" fill-opacity="0.59"/>
<path d="M55.5 151L33.4164 112H77.5836L55.5 151Z" fill="#FFE569" fill-opacity="0.59"/>
<path d="M184.5 76L162.416 37.75H206.584L184.5 76Z" fill="#FFE569" fill-opacity="0.59"/>
<path d="M77.5 37L55.4164 -1.25H99.5836L77.5 37Z" fill="#FFE569" fill-opacity="0.59"/>
<path d="M163 39L185.517 0H140.483L163 39Z" fill="#329ADA"/>
<path d="M206.5 39L184.416 -1.5H228.584L206.5 39Z" fill="#FFE569" fill-opacity="0.59"/>
<path d="M98 75L76.3494 112.5H119.651L98 75Z" fill="#009EFF"/>
<path d="M98 75L76.3494 112.5H119.651L98 75Z" fill="#0069A9"/>
<path d="M228 0L206.349 38.1H249.651L228 0Z" fill="#009EFF"/>
<path d="M185 -0.999998L163.349 38L206.651 38L185 -0.999998Z" fill="#009EFF"/>
<path d="M98 150L76.3494 187.5L119.651 187.5L98 150Z" fill="#009EFF"/>
<path d="M99 0L120.651 37.5H77.3494L99 0Z" fill="#074871"/>
<path d="M34.726 112.357L55.8287 150.912L12.5318 150.294L34.726 112.357Z" fill="#074871"/>
<path d="M77 113L98.6506 75.5H55.3494L77 113Z" fill="#BEE6FF"/>
<path d="M56 75L77.6506 112.5H34.3494L56 75Z" fill="#60C2FF"/>
<path d="M163 113L184.651 74.75H141.349L163 113Z" fill="#BEE6FF"/>
<path d="M141.5 151L163.584 112H119.416L141.5 151Z" fill="#BEE6FF"/>
<path d="M34.5 38L12.4164 -0.25H56.5836L34.5 38Z" fill="#086BA8"/>
<path d="M120 37L141.651 -0.5H98.3494L120 37Z" fill="#9BC2DA"/>
<path d="M35 113L56.6506 75.5H13.3494L35 113Z" fill="#013567"/>
<path d="M13 75L34.6506 37.5H-8.65063L13 75Z" fill="#9BC2DA"/>
</svg>
